<svg xmlns="http://www.w3.org/2000/svg" xmlns:xlink="http://www.w3.org/1999/xlink" viewBox="0 0 881.38 287.82"><defs><style>.cls-1{fill:#fff;}.cls-2{fill:#ffa548;}.cls-3{opacity:0.65;fill:url(#linear-gradient);}.cls-4{fill:#fefefe;}</style><linearGradient id="linear-gradient" x1="692.87" y1="234.71" x2="716.81" y2="73.79" gradientUnits="userSpaceOnUse"><stop offset="0" stop-color="#fff6ed"/><stop offset="1" stop-color="#ffa141" stop-opacity="0"/></linearGradient></defs><title>Asset 13</title><g id="Layer_2" data-name="Layer 2"><g id="Layer_1-2" data-name="Layer 1"><g id="layer101"><path class="cls-1" d="M204.59,228.77c-6.76-1.62-8.67-2.28-13.15-4.56-10.65-5.51-18.29-16.23-21.89-30.63-1.4-5.66-1.62-8.59-1.69-20.57,0-12.34.22-14.76,1.76-20.57,3.23-12.41,8.3-21.23,16.53-28.79,8.6-7.86,17.41-11,29.46-10.29,15.5.81,25.93,7.64,32.69,21.45,4.55,9.33,5.87,16.16,6.39,32.18l.44,13.74H193.86l.44,2.79c2.06,12.12,6.91,18.44,16.46,21.23,6,1.69,17.92,1,24.39-1.47a58,58,0,0,0,7.93-3.75,21.52,21.52,0,0,1,3.38-1.91c.22,0,.3,5.36.22,11.83l-.22,11.9-4.41,2.2c-7.71,4-12.85,5-25,5.29A117.55,117.55,0,0,1,204.59,228.77ZM229,154.28a34.94,34.94,0,0,0-2.06-9.55c-4.55-10.51-16.75-12.71-24.68-4.33-3.67,3.89-5.88,8.88-7.86,17.77l-.44,2h35.48Z"/><path class="cls-1" d="M293.77,227.52c-17-5.8-27.11-25.86-27.11-53.77,0-22.41,6-39.75,17.71-50.76,8-7.5,15.64-10.29,26.44-9.7,10,.59,16.16,4.19,21.38,12.27l2.06,3.3V62.45h27.18V227H334.25V210.55L332,214.22c-6.46,10.29-15.13,15-27.4,15A31.31,31.31,0,0,1,293.77,227.52ZM323,201.66c3.6-2.57,7-7.27,9.25-12.93,1.47-3.67,1.62-5.14,1.62-19,0-14.7-.07-15.14-1.91-19.1-3.82-8.16-9.62-12.49-16.82-12.49-11.39,0-18.51,9.47-20.57,27.18-2.06,17.48,2.72,32.69,11.75,37.32,2.72,1.39,4.19,1.69,8.45,1.47S320.44,203.5,323,201.66Z"/><path class="cls-1" d="M449.07,228.18c-9.55-3.08-15.58-9.84-18.66-20.64-1.32-4.7-1.32-18.66,0-23.51,1.54-5.73,5.07-11.83,8.81-15.28,7.2-6.76,12.42-8.59,33.35-12l13-2.06v-3.08a24.11,24.11,0,0,0-1.1-6.25c-2.36-6.54-7.13-9.4-15.73-9.48-9.47,0-18.36,3-26.88,9.11l-3.68,2.65-.22-11.9c-.07-6.54,0-12.34.22-12.93.59-1.47,8.82-5,16.9-7.2,6.32-1.76,8.82-2,18-2.06,9.48,0,11.09.15,15.06,1.69,8.81,3.53,14.4,8.74,18.44,17.27,4.77,10.21,5.07,13.22,5.07,55.9v38.2H485.94l-.22-7.64-.22-7.71-2.93,4.55a30.07,30.07,0,0,1-12.86,11.31C465.23,229.14,453.84,229.72,449.07,228.18Zm25.19-23.87c3.82-1.77,8-6.61,9.85-11.61,1.1-3,1.47-5.73,1.47-11.24,0-4-.22-7.35-.52-7.35s-5.29.81-11.09,1.77c-11.9,2-15.28,3.6-17.78,8.52-2.05,4.11-2.05,11.9.08,15.43a12.85,12.85,0,0,0,5.8,5.28C464.35,206.14,471.25,205.63,474.26,204.31Z"/><path class="cls-1" d="M0,149.14V71.27H40.11l4.48,15.28c2.5,8.37,8.67,29.46,13.81,46.79,9.48,31.81,12.05,41.14,13.67,49.22L73,187l1.69-7.64c1.47-6.39,9.47-33.57,28.87-98.51l2.79-9.18,19.54-.22,19.61-.15V227H118.2l.22-63.47.22-63.4-1.91,9.62c-1,5.29-4.26,17.41-7.13,26.89-5.07,17-24.46,82.2-26,87.64l-.81,2.79-11-.22-11-.22-7.64-25c-4.18-13.74-8.37-27.62-9.4-30.85-12.56-40.92-16.09-53.26-17.48-61.49l-1.62-9.25.29,63.47L25.12,227H0Z"/><path class="cls-1" d="M384.94,171.18V115.35h27.18V227H384.94Z"/><path class="cls-1" d="M392.65,96c-5.73-2.57-9.33-8.67-9.33-16,0-9.33,5.36-15.87,13.52-16.61,7.56-.58,13.15,2.5,16.08,9,1.84,3.89,1.84,11.46,0,15.43-1.39,3.16-5.73,7.34-8.66,8.52C401.68,97.27,395.22,97.05,392.65,96Z"/></g><g id="layer102"><path class="cls-2" d="M880.87,173.75q-.43,7.09-1,14c-2.8,33-7.9,62-13,72.66-5.66,11.9-12.05,16.46-25.79,18.37-52.59,7.34-118.42,10.5-172.92,8.37-44.67-1.76-99.1-7.49-107.26-11.31-10.21-4.93-15.79-14.77-19.54-34.82a478.15,478.15,0,0,1-8.62-80c-.13-5.16-.19-10.46-.19-16,0-32.25,1.91-56.42,7.12-87.57,3.9-23.5,6.47-31.15,12.93-38.2,6.1-6.54,10.21-8.08,30-10.8s39.17-4.85,58.58-6.26A888.19,888.19,0,0,1,767.3,2.21c7.33.51,15.34,1.18,23.41,2,27,2.54,54.62,6.09,59.82,7.9,8.52,3,14.92,10.5,18.81,22,3.08,9.18,8.37,44.59,10.72,72.5C881.38,121.88,881.83,158.39,880.87,173.75Z"/><path class="cls-3" d="M880.87,172.78c-.29,4.73-.64,9.42-1,14-15.16,1.52-128.62,12.22-203.58-.17-77.27-20-139.66-26.17-143.54-26.55-.13-5.16-.19-10.46-.19-16,0-32.25,1.91-56.42,7.12-87.56,3.9-23.51,6.47-31.15,12.93-38.2,6.1-6.54,10.21-8.08,30-10.8s39.17-4.85,58.58-6.26L790.71,3.19c27,2.54,54.62,6.1,59.82,7.91,8.52,3,14.92,10.5,18.81,22,3.08,9.18,8.37,44.59,10.72,72.51C881.38,120.92,881.83,157.43,880.87,172.78Z"/></g><g id="layer103"><path class="cls-4" d="M716.61,223.77c-10-3.16-16.31-10.06-19.1-20.79-1.32-5-1.47-16.89-.29-22.4a31.21,31.21,0,0,1,17.7-22.26c5.81-2.64,10.65-3.75,27.26-6.32,10.65-1.69,10.8-1.69,10.8-3.6-.08-6.68-3.46-13.07-8.31-15.57-3.89-2.06-13.29-2.2-19.9-.29-5.29,1.54-13.37,5.5-16.39,8.08a13.4,13.4,0,0,1-2.71,1.91c-.22,0-.44-5.59-.44-12.42V117.77l4.62-2.28a87.88,87.88,0,0,1,12.27-4.33c10-2.57,25-2.94,31.59-.66,11.46,4,19.1,12.41,22.41,25.19,2,7.86,2.57,17.27,2.57,51.87v34.3H753V205.34l-1.84,3.23c-4.63,8-9.92,12.56-17.41,14.91C728.66,225,721,225.17,716.61,223.77Zm24.46-23.87c7.79-4,11.91-12.42,11.91-24.46,0-4.63-.23-5.73-1.11-5.73-2.35,0-19.39,2.93-21.37,3.74-6.47,2.43-9.48,7.72-9,15.65.3,5.36,1.62,7.79,5.73,10.58C730.42,201.81,737.11,202,741.07,199.9Z"/><path class="cls-4" d="M598,144.29V66.71l28.14.3c25.86.29,28.5.44,33.79,1.91,8,2.2,13.66,5.43,18.73,10.72,7.79,8.16,11,17,11.68,32.4.66,15.13-1.76,25.12-8.3,35a48.36,48.36,0,0,1-27.11,19.39c-2.71.74-9,1.33-16.67,1.55l-12.34.44v53.4H598Zm52.53-4.11a20.42,20.42,0,0,0,5.21-3.68c9-9.77,7.64-32.76-2.27-39.45-4.71-3.23-7.42-3.89-17.78-4.26l-9.77-.44v50.32l10.5-.29C645.94,142.16,647.12,141.94,650.5,140.18Z"/><path class="cls-4" d="M800.72,140V58.05h27.19V221.86H800.72Z"/></g></g></g></svg>