<svg id="Layer_1" data-name="Layer 1" xmlns="http://www.w3.org/2000/svg" viewBox="0 0 728.5 881.76"><defs><style>.cls-1{fill:#eaf2ff;}.cls-2{fill:#fff;stroke:#d9e4f4;}.cls-2,.cls-4{stroke-miterlimit:10;}.cls-3{fill:#c2d2ed;}.cls-4{fill:none;stroke:#c2d2ed;}.cls-5{fill:#deeafc;}</style></defs><title>no-shadow</title><path class="cls-1" d="M610.93,215.54V333.27a4.82,4.82,0,0,1-4.8,4.81h-4.81V803a55.26,55.26,0,0,1-55.26,55.26H259.33A55.26,55.26,0,0,1,204.07,803V351H201a4.42,4.42,0,0,1-4.41-4.41V297.77a4.42,4.42,0,0,1,4.41-4.41h3.07V277.61h-2.94a4.53,4.53,0,0,1-4.54-4.54V225a4.53,4.53,0,0,1,4.54-4.54h2.94V185h-3.41a4.07,4.07,0,0,1-4.07-4.07V148.46a4.08,4.08,0,0,1,4.07-4.07h3.41V106.22A55.26,55.26,0,0,1,259.33,51H546.06a55.26,55.26,0,0,1,55.26,55.27V210.73h4.81A4.82,4.82,0,0,1,610.93,215.54Z"/><path class="cls-2" d="M546,846.17H259.42A44.14,44.14,0,0,1,215.28,802V106.22a44.06,44.06,0,0,1,44-44.06h31.32a6.68,6.68,0,0,1,6.68,6.68h0a27.5,27.5,0,0,0,27.5,27.5H481.45A27.5,27.5,0,0,0,509,68.84h0a6.68,6.68,0,0,1,6.67-6.68h30.44a44.06,44.06,0,0,1,44.05,44.06V802A44.14,44.14,0,0,1,546,846.17Z"/><rect class="cls-3" x="333.01" y="824.23" width="153.38" height="6.41" rx="1.44"/><circle class="cls-3" cx="353.84" cy="74.71" r="3.2"/><circle class="cls-3" cx="447.28" cy="74.71" r="8.81"/><line class="cls-4" x1="376.53" y1="74.71" x2="429.12" y2="74.71"/><rect class="cls-1" x="238.09" y="311.55" width="329.21" height="274.34" rx="8.31"/><rect class="cls-5" x="237.17" y="783.43" width="328.91" height="9.61" rx="2.16"/><rect class="cls-5" x="237.17" y="748.96" width="328.91" height="9.61" rx="2.16"/><rect class="cls-5" x="237.17" y="714.48" width="328.91" height="9.61" rx="2.16"/><rect class="cls-5" x="237.17" y="680" width="328.91" height="9.61" rx="2.16"/><rect class="cls-5" x="237.17" y="645.53" width="328.91" height="9.61" rx="2.16"/><rect class="cls-5" x="237.17" y="611.05" width="328.91" height="9.61" rx="2.16"/><rect class="cls-5" x="237.17" y="283.46" width="328.91" height="9.61" rx="2.16"/><rect class="cls-5" x="237.17" y="248.98" width="328.91" height="9.61" rx="2.16"/><rect class="cls-5" x="237.17" y="214.51" width="328.91" height="9.61" rx="2.16"/><rect class="cls-5" x="237.17" y="180.03" width="328.91" height="9.61" rx="2.16"/><rect class="cls-5" x="237.17" y="145.55" width="328.91" height="9.61" rx="2.16"/><rect class="cls-5" x="237.17" y="111.08" width="328.91" height="9.61" rx="2.16"/></svg>